HIERARCHY
ROOT Hips
{
	OFFSET 0.000000 0.000000 0.000000
	CHANNELS 6 Xposition Yposition Zposition Zrotation Yrotation Xrotation 
	JOINT LHipJoint
	{
		OFFSET 0.000000 0.000000 0.000000
		CHANNELS 3 Zrotation Yrotation Xrotation
		JOINT LeftUpLeg
		{
			OFFSET 1.363060 -1.794630 0.839290
			CHANNELS 3 Zrotation Yrotation Xrotation
			JOINT LeftLeg
			{
				OFFSET 2.448110 -6.726130 0.000000
				CHANNELS 3 Zrotation Yrotation Xrotation
				JOINT LeftFoot
				{
					OFFSET 2.562200 -7.039590 0.000000
					CHANNELS 3 Zrotation Yrotation Xrotation
					JOINT LeftToeBase
					{
						OFFSET 0.157640 -0.433110 2.322550
						CHANNELS 3 Zrotation Yrotation Xrotation
						End Site
						{
							OFFSET 0.000000 0.000000 0.000000
						}
					}
				}
			}
		}
	}
	JOINT RHipJoint
	{
		OFFSET 0.000000 0.000000 0.000000
		CHANNELS 3 Zrotation Yrotation Xrotation
		JOINT RightUpLeg
		{
			OFFSET -1.305520 -1.794630 0.839290
			CHANNELS 3 Zrotation Yrotation Xrotation
			JOINT RightLeg
			{
				OFFSET -2.542530 -6.985550 0.000000
				CHANNELS 3 Zrotation Yrotation Xrotation
				JOINT RightFoot
				{
					OFFSET -2.568260 -7.056230 0.000000
					CHANNELS 3 Zrotation Yrotation Xrotation
					JOINT RightToeBase
					{
						OFFSET -0.164730 -0.452590 2.363150
						CHANNELS 3 Zrotation Yrotation Xrotation
						End Site
						{
							OFFSET 0.000000 0.000000 0.000000
						}
					}
				}
			}
		}
	}
	JOINT LowerBack
	{
		OFFSET 0.000000 0.000000 0.000000
		CHANNELS 3 Zrotation Yrotation Xrotation
		JOINT Spine
		{
			OFFSET 0.028270 2.035590 -0.193380
			CHANNELS 3 Zrotation Yrotation Xrotation
			JOINT Spine1
			{
				OFFSET 0.056720 2.048850 -0.042750
				CHANNELS 3 Zrotation Yrotation Xrotation
				JOINT Neck
				{
					OFFSET 0.000000 0.000000 0.000000
					CHANNELS 3 Zrotation Yrotation Xrotation
					JOINT Neck1
					{
						OFFSET -0.054170 1.746240 0.172020
						CHANNELS 3 Zrotation Yrotation Xrotation
						JOINT Head
						{
							OFFSET 0.104070 1.761360 -0.123970
							CHANNELS 3 Zrotation Yrotation Xrotation
							End Site
							{
								OFFSET 0.000000 0.000000 0.000000
							}
						}
					}
				}
				JOINT LeftShoulder
				{
					OFFSET 0.000000 0.000000 0.000000
					CHANNELS 3 Zrotation Yrotation Xrotation
					JOINT LeftArm
					{
						OFFSET 3.362410 1.200890 -0.311210
						CHANNELS 3 Zrotation Yrotation Xrotation
						JOINT LeftForeArm
						{
							OFFSET 4.983000 -0.000000 -0.000000
							CHANNELS 3 Zrotation Yrotation Xrotation
							JOINT LeftHand
							{
								OFFSET 3.483560 -0.000000 -0.000000
								CHANNELS 3 Zrotation Yrotation Xrotation
								JOINT LeftFingerBase
								{
									OFFSET 0.000000 0.000000 0.000000
									CHANNELS 3 Zrotation Yrotation Xrotation
									JOINT LeftHandIndex1
									{
										OFFSET 0.715260 -0.000000 -0.000000
										CHANNELS 3 Zrotation Yrotation Xrotation
										End Site
										{
											OFFSET 0.000000 0.000000 0.000000
										}
									}
								}
								JOINT LThumb
								{
									OFFSET 0.000000 0.000000 0.000000
									CHANNELS 3 Zrotation Yrotation Xrotation
									End Site
									{
										OFFSET 0.000000 0.000000 0.000000
									}
								}
							}
						}
					}
				}
				JOINT RightShoulder
				{
					OFFSET 0.000000 0.000000 0.000000
					CHANNELS 3 Zrotation Yrotation Xrotation
					JOINT RightArm
					{
						OFFSET -3.136600 1.374050 -0.404650
						CHANNELS 3 Zrotation Yrotation Xrotation
						JOINT RightForeArm
						{
							OFFSET -5.241900 -0.000000 -0.000000
							CHANNELS 3 Zrotation Yrotation Xrotation
							JOINT RightHand
							{
								OFFSET -3.444170 -0.000000 -0.000000
								CHANNELS 3 Zrotation Yrotation Xrotation
								JOINT RightFingerBase
								{
									OFFSET 0.000000 0.000000 0.000000
									CHANNELS 3 Zrotation Yrotation Xrotation
									JOINT RightHandIndex1
									{
										OFFSET -0.622530 -0.000000 -0.000000
										CHANNELS 3 Zrotation Yrotation Xrotation
										End Site
										{
											OFFSET 0.000000 0.000000 0.000000
										}
									}
								}
								JOINT RThumb
								{
									OFFSET 0.000000 0.000000 0.000000
									CHANNELS 3 Zrotation Yrotation Xrotation
									End Site
									{
										OFFSET 0.000000 0.000000 0.000000
									}
								}
							}
						}
					}
				}
			}
		}
	}
}
MOTION
Frames: 5
Frame Time: 0.033333
0.768941 17.679488 -10.942533 8.928108 -1.868721 11.491185 -9.905425 4.825615 6.862701 -18.224376 -14.549912 -11.924697 -4.902354 5.656542 -4.128957 -0.564270 -2.117122 6.980305 2.012416 0.192472 -40.580865 12.546762 -2.458111 4.072439 4.256645 8.207953 -13.510400 -8.577162 -5.385819 13.582642 -4.002251 -6.707693 -13.085399 -1.036187 0.093879 -40.887163 -7.712173 -8.884099 -9.242649 -0.253050 -2.271891 -5.980386 -5.669744 -4.339904 2.594171 9.787943 -16.409869 -10.850324 -3.138219 -0.358230 -0.186834 -0.022799 0.008215 0.049608 2.385208 6.531053 1.960125 -53.207427 4.837880 22.083339 3.155500 -61.702049 -1.298073 7.374225 -4.973330 -0.250689 -0.141908 0.317027 -0.009153 -0.066327 -0.039731 -0.005760 -0.034214 0.134546 -0.063366 7.313817 -18.038502 -3.498781 71.199540 -8.550610 38.294944 -179.773881 62.021642 -178.471756 -0.918932 9.989088 -0.041102 -0.056619 -0.197538 -0.069722 -0.054105 -0.007208 -0.037104 -0.040358 0.016416 0.073239 
0.690614 17.360905 -10.312673 10.358415 -1.347275 11.304953 -9.445342 4.039746 7.650786 -20.520198 -17.935331 -19.577839 2.016025 12.968043 2.656949 -0.269595 -0.778929 4.766784 1.949660 0.108143 -37.153244 11.455425 -2.930794 2.561933 4.129298 9.355480 -9.272403 -8.224269 -8.391678 14.404397 -3.343271 -4.983755 -19.958842 -0.631689 0.124192 -37.780228 -11.362094 -2.447943 -10.886265 -0.292181 -3.467486 -6.240367 -6.215467 -5.988530 3.879271 9.975410 -15.285685 -10.738637 -3.537666 -0.411763 -0.424881 -0.017008 0.028112 0.053771 2.710087 8.838628 -1.524962 -55.369959 13.127005 24.980250 2.627807 -66.776300 -1.416490 8.893624 -5.353851 -0.339788 -0.109331 0.305098 -0.013364 -0.072955 -0.046980 -0.010774 -0.027866 0.136179 -0.070476 11.572765 -5.922384 -5.327913 72.248311 -8.441021 34.658616 179.531352 65.556024 -179.810788 -1.633986 9.979946 -0.080383 0.003648 -0.282016 -0.068894 -0.049762 -0.000760 -0.038305 -0.044789 0.025752 0.087107 
0.650991 17.084571 -9.748111 8.947959 -3.632964 13.468076 -8.657778 3.284163 7.571447 -19.789610 -19.124250 -34.488556 5.358627 9.931577 19.280472 -0.079549 1.635045 4.141730 1.879779 -0.054049 -33.222283 12.437556 -2.148444 1.131714 4.780788 9.069479 -8.029902 -8.620183 -7.629471 15.017439 -1.563300 -2.200922 -25.213131 -0.100386 0.202294 -36.944545 -12.161625 7.925967 -12.461728 1.490721 -4.130585 -6.486522 -7.482231 -5.900310 2.131912 8.743353 -13.824282 -10.063384 -4.401528 -0.492205 -0.590951 -0.010860 0.035322 0.055762 1.026745 8.798341 -2.381967 -55.112297 16.799454 26.124987 11.417852 -72.538467 -9.289791 11.300267 -5.304809 -0.508454 -0.187148 0.453658 -0.018496 -0.053955 -0.050329 -0.023532 -0.033477 0.129283 -0.097060 13.483089 -4.637615 -4.832566 72.098315 -5.301197 31.019232 177.585068 71.389403 177.655071 -3.613239 9.406931 -0.260325 0.186416 -0.499919 -0.056146 -0.053245 0.011260 -0.036233 -0.057935 0.032152 0.074669 
0.622780 16.900910 -9.196241 8.391973 -5.316574 15.876371 -8.051856 2.706035 6.415006 -17.424267 -20.182363 -49.190624 2.711482 6.640800 33.705586 0.328547 3.140463 -0.569872 1.567117 -0.092193 -31.659690 12.624011 -1.323557 1.157222 4.957297 10.458514 -8.724953 -9.539322 -8.644319 16.276327 -0.583677 -0.627714 -28.476608 0.629147 0.086850 -36.286521 -11.913238 10.966955 -13.766109 1.198855 -4.891976 -5.401785 -6.810248 -3.395844 1.403694 7.948414 -11.759495 -9.501886 -4.517674 -0.523083 -0.588243 -0.006039 0.034707 0.044611 -1.431930 10.553027 -3.346695 -55.160712 21.257617 26.151095 15.907307 -71.904330 -14.026816 11.507618 -4.897214 -0.502003 -0.130777 0.410710 -0.010310 -0.047260 -0.049963 -0.029788 -0.025043 0.125132 -0.110391 11.009119 -0.760717 -11.536136 72.914395 -3.571867 27.836553 170.269414 74.803489 169.493969 -4.623939 9.454673 -0.336895 0.330022 -0.395646 -0.049757 -0.039061 0.022687 -0.040699 -0.058026 0.022610 0.071078 
0.558563 16.800449 -8.611268 9.555335 -5.609236 18.047620 -8.612526 3.147433 6.727626 -15.167920 -21.340070 -59.591260 -0.788669 3.674048 41.127835 0.651756 3.557947 -4.327805 0.972232 -0.058192 -32.766226 12.143412 -0.769414 1.133003 4.951966 9.310610 -12.151654 -11.732953 -8.635594 21.641982 -1.472704 -0.892858 -29.319194 1.200278 -0.045017 -37.724476 -14.781688 14.244598 -14.842636 1.370124 -4.719500 -5.098209 -4.962050 -3.751536 1.473338 8.433537 -10.521847 -10.235821 -3.989420 -0.466397 -0.753846 0.003204 0.027303 0.037370 -3.612963 10.430208 -1.966840 -52.004685 22.680479 26.608620 18.945829 -69.142734 -16.328608 11.086698 -3.992791 -0.410438 -0.105195 0.400265 -0.003986 -0.034689 -0.047626 -0.039166 -0.009016 0.110270 -0.108835 10.540641 -0.395056 -16.046432 72.684318 -1.807176 25.793914 165.700958 78.377459 164.476016 -5.469630 9.244492 -0.408491 0.339767 -0.544990 -0.052505 -0.008180 0.024471 -0.041402 -0.065335 0.007594 0.072304 
